<svg width="105" height="35" viewBox="0 0 105 35" fill="none" xmlns="http://www.w3.org/2000/svg">
<path d="M7.1044 24.3687C5.87527 24.3687 4.78543 24.1065 3.8349 23.5821C2.88437 23.0413 2.1387 22.2874 1.59788 21.3205C1.07345 20.3536 0.811229 19.231 0.811229 17.9527V16.6744H2.99909V17.8297C2.99909 18.6983 3.17117 19.4686 3.51533 20.1405C3.85949 20.7961 4.33475 21.3041 4.94113 21.6646C5.56389 22.0252 6.27679 22.2055 7.07982 22.2055C8.27618 22.2055 9.22671 21.8121 9.93142 21.0255C10.6525 20.2225 11.0131 19.1572 11.0131 17.8297V6.7921H13.2255V17.9527C13.2255 19.231 12.9715 20.3536 12.4634 21.3205C11.9718 22.2874 11.2589 23.0413 10.3247 23.5821C9.40699 24.1065 8.33354 24.3687 7.1044 24.3687Z" fill="#0F172A"/>
<path d="M11.2641 28.1841V13.1149H4.60219V10.9762H20.1139V13.1149H13.4766V28.1841H11.2641Z" fill="#0F172A"/>
<path d="M24.5886 22.0772C23.9228 22.0772 23.33 21.9433 22.8103 21.6753C22.2987 21.3992 21.9008 21.0135 21.6166 20.5181C21.3323 20.0147 21.1902 19.4381 21.1902 18.7885V17.9236H23.1026V18.6667C23.1026 18.959 23.1635 19.2229 23.2853 19.4584C23.4071 19.6939 23.5776 19.8766 23.7969 20.0065C24.0161 20.1283 24.2679 20.1892 24.5521 20.1892C24.9743 20.1892 25.3113 20.0512 25.5631 19.7751C25.8229 19.4909 25.9529 19.1214 25.9529 18.6667V13.3681H27.9018V18.7885C27.9018 19.4381 27.7637 20.0147 27.4876 20.5181C27.2196 21.0135 26.8339 21.3992 26.3305 21.6753C25.8351 21.9433 25.2545 22.0772 24.5886 22.0772ZM32.5009 22.0163C31.8675 22.0163 31.295 21.8783 30.7834 21.6022C30.28 21.3261 29.8821 20.9485 29.5897 20.4694C29.3055 19.9822 29.1634 19.4422 29.1634 18.8494C29.1634 18.2485 29.3055 17.7085 29.5897 17.2294C29.8821 16.7502 30.28 16.3726 30.7834 16.0966C31.295 15.8205 31.8675 15.6824 32.5009 15.6824C33.1262 15.6824 33.6905 15.8205 34.194 16.0966C34.7056 16.3726 35.1075 16.7543 35.3999 17.2415C35.6922 17.7206 35.8384 18.2566 35.8384 18.8494C35.8384 19.4422 35.6922 19.9822 35.3999 20.4694C35.1075 20.9485 34.7056 21.3261 34.194 21.6022C33.6905 21.8783 33.1262 22.0163 32.5009 22.0163ZM32.5009 20.445C32.7932 20.445 33.0612 20.376 33.3048 20.238C33.5484 20.0999 33.7393 19.9091 33.8773 19.6655C34.0235 19.4219 34.0966 19.1498 34.0966 18.8494C34.0966 18.5489 34.0235 18.2769 33.8773 18.0333C33.7393 17.7897 33.5484 17.5988 33.3048 17.4608C33.0612 17.3146 32.7932 17.2415 32.5009 17.2415C32.2004 17.2415 31.9284 17.3146 31.6848 17.4608C31.4412 17.5988 31.2463 17.7897 31.1001 18.0333C30.9621 18.2769 30.893 18.5489 30.893 18.8494C30.893 19.1498 30.9621 19.4219 31.1001 19.6655C31.2463 19.9091 31.4412 20.0999 31.6848 20.238C31.9284 20.376 32.2004 20.445 32.5009 20.445ZM37.2884 21.8945V13.2463H38.9816V17.9115C39.0952 17.2375 39.347 16.6975 39.7368 16.2914C40.1347 15.8854 40.6178 15.6824 41.1862 15.6824C41.641 15.6824 42.0389 15.7961 42.3799 16.0235C42.721 16.2508 42.9849 16.5757 43.1717 16.9979C43.3585 17.4121 43.4518 17.8952 43.4518 18.4474V21.8945H41.7466V18.7154C41.7384 18.2769 41.6085 17.9236 41.3568 17.6557C41.105 17.3877 40.7762 17.2537 40.3701 17.2537C40.1103 17.2537 39.8748 17.3187 39.6637 17.4486C39.4525 17.5785 39.2861 17.7531 39.1643 17.9724C39.0425 18.1916 38.9816 18.4393 38.9816 18.7154V21.8945H37.2884ZM45.3296 21.8945V15.8042H47.0227V17.9115C47.1364 17.2375 47.3881 16.6975 47.7779 16.2914C48.1758 15.8854 48.6589 15.6824 49.2274 15.6824C49.6821 15.6824 50.08 15.7961 50.4211 16.0235C50.7621 16.2508 51.026 16.5757 51.2128 16.9979C51.3996 17.4121 51.493 17.8952 51.493 18.4474V21.8945H49.7877V18.7154C49.7795 18.2769 49.6496 17.9236 49.3979 17.6557C49.1462 17.3877 48.8173 17.2537 48.4113 17.2537C48.1514 17.2537 47.9159 17.3187 47.7048 17.4486C47.4937 17.5785 47.3272 17.7531 47.2054 17.9724C47.0836 18.1916 47.0227 18.4393 47.0227 18.7154V21.8945H45.3296ZM58.8154 21.8945V15.2439H55.7459V13.3681H63.8216V15.2439H60.7643V21.8945H58.8154ZM66.5888 22.0163C66.1341 22.0163 65.7362 21.9027 65.3951 21.6753C65.0541 21.4479 64.7902 21.1272 64.6034 20.713C64.4166 20.2907 64.3232 19.8035 64.3232 19.2513V15.8042H66.0285L66.0407 18.9712C66.0407 19.4178 66.1666 19.7751 66.4183 20.0431C66.67 20.3111 66.9989 20.445 67.4049 20.445C67.6648 20.445 67.9003 20.3801 68.1114 20.2501C68.3225 20.1202 68.489 19.9456 68.6108 19.7264C68.7326 19.5071 68.7935 19.2554 68.7935 18.9712V15.8042H70.4866V21.8945H68.7935V19.7873C68.6798 20.4613 68.4241 21.0013 68.0261 21.4073C67.6364 21.8133 67.1573 22.0163 66.5888 22.0163ZM72.4862 21.8945V15.8042H74.1793V17.8871C74.2848 17.27 74.5163 16.7502 74.8736 16.328C75.239 15.8976 75.71 15.6824 76.2865 15.6824C76.7007 15.6824 77.0417 15.7717 77.3097 15.9504C77.5858 16.129 77.7847 16.3889 77.9065 16.7299C78.0365 17.071 78.1014 17.4933 78.1014 17.9967V18.5814H76.4083V18.3378C76.4083 17.9967 76.319 17.7369 76.1403 17.5582C75.9698 17.3715 75.7343 17.2781 75.4339 17.2781C75.1903 17.2781 74.9751 17.343 74.7883 17.473C74.6015 17.5948 74.4513 17.7694 74.3376 17.9967C74.2321 18.2241 74.1793 18.4718 74.1793 18.7398V21.8945H72.4862ZM79.0523 21.8945V15.8042H80.7454V17.9115C80.8591 17.2375 81.1108 16.6975 81.5006 16.2914C81.8985 15.8854 82.3816 15.6824 82.9501 15.6824C83.4048 15.6824 83.8027 15.7961 84.1438 16.0235C84.4848 16.2508 84.7487 16.5757 84.9355 16.9979C85.1223 17.4121 85.2157 17.8952 85.2157 18.4474V21.8945H83.5104V18.7154C83.5023 18.2769 83.3723 17.9236 83.1206 17.6557C82.8689 17.3877 82.54 17.2537 82.134 17.2537C81.8741 17.2537 81.6386 17.3187 81.4275 17.4486C81.2164 17.5785 81.0499 17.7531 80.9281 17.9724C80.8063 18.1916 80.7454 18.4393 80.7454 18.7154V21.8945H79.0523ZM89.8462 22.0163C89.2291 22.0163 88.6688 21.8824 88.1653 21.6144C87.6699 21.3464 87.2761 20.9769 86.9838 20.5059C86.6996 20.035 86.5574 19.499 86.5574 18.8981C86.5574 18.2728 86.7036 17.7166 86.9959 17.2294C87.2883 16.7421 87.6862 16.3645 88.1896 16.0966C88.6931 15.8205 89.2494 15.6824 89.8584 15.6824C90.4674 15.6824 91.0156 15.8205 91.5028 16.0966C91.9981 16.3645 92.3879 16.7421 92.6721 17.2294C92.9563 17.7085 93.0984 18.2485 93.0984 18.8494C93.0984 18.8656 93.0984 18.8859 93.0984 18.9103C93.0984 18.9346 93.0984 18.9549 93.0984 18.9712H88.2262C88.2424 19.2635 88.3236 19.5274 88.4698 19.7629C88.6241 19.9903 88.819 20.173 89.0545 20.3111C89.2981 20.441 89.5661 20.5059 89.8584 20.5059C90.1426 20.5059 90.3984 20.4491 90.6258 20.3354C90.8531 20.2217 91.0115 20.0715 91.1008 19.8847H92.9157C92.8751 20.2258 92.7208 20.5628 92.4529 20.8957C92.193 21.2205 91.8357 21.4885 91.381 21.6996C90.9343 21.9108 90.4228 22.0163 89.8462 22.0163ZM91.5028 18.7276C91.4865 18.4352 91.4053 18.1754 91.2592 17.948C91.113 17.7125 90.9181 17.5298 90.6745 17.3999C90.439 17.2618 90.171 17.1928 89.8706 17.1928C89.5782 17.1928 89.3103 17.2618 89.0667 17.3999C88.8312 17.5298 88.6363 17.7125 88.482 17.948C88.3358 18.1754 88.2546 18.4352 88.2384 18.7276H91.5028ZM94.5041 21.8945V15.8042H96.1972V17.8871C96.3027 17.27 96.5342 16.7502 96.8915 16.328C97.2569 15.8976 97.7279 15.6824 98.3044 15.6824C98.7186 15.6824 99.0596 15.7717 99.3276 15.9504C99.6037 16.129 99.8026 16.3889 99.9244 16.7299C100.054 17.071 100.119 17.4933 100.119 17.9967V18.5814H98.4262V18.3378C98.4262 17.9967 98.3369 17.7369 98.1582 17.5582C97.9877 17.3715 97.7522 17.2781 97.4518 17.2781C97.2082 17.2781 96.993 17.343 96.8062 17.473C96.6194 17.5948 96.4692 17.7694 96.3555 17.9967C96.2499 18.2241 96.1972 18.4718 96.1972 18.7398V21.8945H94.5041Z" fill="#0F172A"/>
</svg>
